<svg xmlns="http://www.w3.org/2000/svg" width="1320" height="250" viewBox="0 0 1320 250">
      <rect width="1320" height="250" fill="#0A1622"/>
      <defs><marker id="arrow" markerWidth="8" markerHeight="8" refX="7" refY="3" orient="auto"><path d="M0,0 L0,6 L8,3 z" fill="#3F7CAC"/></marker></defs>
      <text x="28" y="42" fill="#EAF2F8" font-family="Segoe UI,Arial" font-size="24" font-weight="700">INSURANCE CLAIMS INTELLIGENCE — SOLUTION ARCHITECTURE</text>
      <text x="28" y="68" fill="#7E93A8" font-family="Segoe UI,Arial" font-size="13">Reproducible synthetic portfolio • governed transformation • decision support with human review</text>
      <g font-family="Segoe UI,Arial"><rect x="28" y="95" width="124" height="82" rx="10" fill="#132840" stroke="#2EC4B6" stroke-width="2"/><text x="90" y="130" text-anchor="middle" fill="#EAF2F8" font-size="11" font-weight="600">SYNTHETIC DATA</text><text x="90" y="146" text-anchor="middle" fill="#EAF2F8" font-size="11" font-weight="600">GENERATOR</text><rect x="170" y="95" width="124" height="82" rx="10" fill="#132840" stroke="#254763" stroke-width="2"/><text x="232" y="130" text-anchor="middle" fill="#EAF2F8" font-size="11" font-weight="600">RAW DATA</text><rect x="312" y="95" width="124" height="82" rx="10" fill="#132840" stroke="#254763" stroke-width="2"/><text x="374" y="130" text-anchor="middle" fill="#EAF2F8" font-size="11" font-weight="600">DATA VALIDATION</text><rect x="454" y="95" width="124" height="82" rx="10" fill="#132840" stroke="#254763" stroke-width="2"/><text x="516" y="130" text-anchor="middle" fill="#EAF2F8" font-size="11" font-weight="600">POWER QUERY / ETL</text><rect x="596" y="95" width="124" height="82" rx="10" fill="#132840" stroke="#254763" stroke-width="2"/><text x="658" y="130" text-anchor="middle" fill="#EAF2F8" font-size="11" font-weight="600">STAR SCHEMA</text><rect x="738" y="95" width="124" height="82" rx="10" fill="#132840" stroke="#254763" stroke-width="2"/><text x="800" y="130" text-anchor="middle" fill="#EAF2F8" font-size="11" font-weight="600">SEMANTIC MODEL</text><rect x="880" y="95" width="124" height="82" rx="10" fill="#132840" stroke="#254763" stroke-width="2"/><text x="942" y="130" text-anchor="middle" fill="#EAF2F8" font-size="11" font-weight="600">DAX MEASURE LAYER</text><rect x="1022" y="95" width="124" height="82" rx="10" fill="#132840" stroke="#254763" stroke-width="2"/><text x="1084" y="130" text-anchor="middle" fill="#EAF2F8" font-size="11" font-weight="600">POWER BI REPORT</text><rect x="1164" y="95" width="124" height="82" rx="10" fill="#132840" stroke="#2EC4B6" stroke-width="2"/><text x="1226" y="130" text-anchor="middle" fill="#EAF2F8" font-size="11" font-weight="600">EXECUTIVE DECISION</text><text x="1226" y="146" text-anchor="middle" fill="#EAF2F8" font-size="11" font-weight="600">SUPPORT</text><path d="M 152 136 L 168 136" stroke="#3F7CAC" stroke-width="3" marker-end="url(#arrow)"/><path d="M 294 136 L 310 136" stroke="#3F7CAC" stroke-width="3" marker-end="url(#arrow)"/><path d="M 436 136 L 452 136" stroke="#3F7CAC" stroke-width="3" marker-end="url(#arrow)"/><path d="M 578 136 L 594 136" stroke="#3F7CAC" stroke-width="3" marker-end="url(#arrow)"/><path d="M 720 136 L 736 136" stroke="#3F7CAC" stroke-width="3" marker-end="url(#arrow)"/><path d="M 862 136 L 878 136" stroke="#3F7CAC" stroke-width="3" marker-end="url(#arrow)"/><path d="M 1004 136 L 1020 136" stroke="#3F7CAC" stroke-width="3" marker-end="url(#arrow)"/><path d="M 1146 136 L 1162 136" stroke="#3F7CAC" stroke-width="3" marker-end="url(#arrow)"/></g>
      <text x="28" y="220" fill="#F4A261" font-family="Segoe UI,Arial" font-size="12">SYNTHETIC DATA ONLY — no production or employer-confidential information</text>
    </svg>